<mxfile host="app.diagrams.net" modified="2022-03-26T10:56:14.307Z" agent="5.0 (Windows NT 10.0; Win64; x64) AppleWebKit/537.36 (KHTML, like Gecko) Chrome/99.0.4844.82 Safari/537.36" etag="QBXORURoP7dGki88KHaG" version="17.2.4" type="github">
  <diagram id="_erSl6p15b4vkUFaXhJ3" name="第 1 页">
    <mxGraphModel dx="460" dy="776" grid="1" gridSize="10" guides="1" tooltips="1" connect="1" arrows="1" fold="1" page="1" pageScale="1" pageWidth="827" pageHeight="1169" math="0" shadow="0">
      <root>
        <mxCell id="0" />
        <mxCell id="1" parent="0" />
      </root>
    </mxGraphModel>
  </diagram>
</mxfile>
